<svg xmlns="http://www.w3.org/2000/svg" width="600" viewBox="0 0 600 900" height="900" version="1.0"><defs><clipPath id="a"><path d="M 150.800781 144 L 344 144 L 344 423 L 150.800781 423 Z M 150.800781 144"/></clipPath><clipPath id="b"><path d="M 200 489 L 294 489 L 294 842.953125 L 200 842.953125 Z M 200 489"/></clipPath><clipPath id="c"><path d="M 415 489 L 508.550781 489 L 508.550781 842.953125 L 415 842.953125 Z M 415 489"/></clipPath><clipPath id="d"><path d="M 389 56.953125 L 499 56.953125 L 499 459 L 389 459 Z M 389 56.953125"/></clipPath></defs><path fill="#FFF" d="M-60 -90H660V990H-60z"/><path fill="#FFF" d="M-60 -90H660V990H-60z"/><path fill="#FFF" d="M-60 -90H660V990H-60z"/><g clip-path="url(#a)"><path fill="#404040" d="M 258.085938 422.238281 L 236.148438 422.238281 C 212.046875 422.238281 192.3125 414.296875 177.5 398.585938 C 148.242188 367.554688 150.835938 317.355469 150.964844 315.238281 L 150.929688 162.578125 C 150.929688 152.832031 158.828125 144.945312 168.566406 144.945312 C 178.308594 144.945312 186.207031 152.832031 186.207031 162.578125 L 186.207031 316.265625 C 186.160156 317.632812 184.429688 354.644531 203.253906 374.496094 C 211.226562 382.898438 221.992188 387 236.148438 387 L 258.085938 387 C 272.28125 387 283.078125 382.875 291.066406 374.402344 C 309.703125 354.648438 308.085938 317.6875 308.070312 317.308594 L 308.035156 162.582031 C 308.035156 152.835938 315.929688 144.949219 325.671875 144.949219 C 335.417969 144.949219 343.3125 152.835938 343.3125 162.582031 L 343.3125 316.269531 C 343.40625 317.359375 346 367.558594 316.742188 398.589844 C 301.917969 414.300781 282.183594 422.238281 258.085938 422.238281 Z M 258.085938 422.238281"/></g><path fill="#404040" d="M 222.5 275.578125 C 212.773438 275.578125 204.871094 267.691406 204.871094 257.945312 L 204.871094 162.089844 C 204.871094 152.34375 212.765625 144.457031 222.5 144.457031 C 232.238281 144.457031 240.140625 152.34375 240.140625 162.089844 L 240.140625 257.9375 C 240.140625 267.691406 232.246094 275.578125 222.5 275.578125 Z M 222.5 275.578125"/><path fill="#404040" d="M 271.71875 275.578125 C 261.992188 275.578125 254.09375 267.691406 254.09375 257.945312 L 254.09375 162.089844 C 254.09375 152.34375 261.992188 144.457031 271.71875 144.457031 C 281.460938 144.457031 289.359375 152.34375 289.359375 162.089844 L 289.359375 257.9375 C 289.359375 267.691406 281.460938 275.578125 271.71875 275.578125 Z M 271.71875 275.578125"/><g clip-path="url(#b)"><path fill="#404040" d="M 252.183594 842.953125 L 242.027344 842.953125 C 219.292969 842.953125 200.777344 824.472656 200.777344 801.726562 L 200.777344 507.210938 C 200.777344 497.464844 208.679688 489.578125 218.417969 489.578125 L 275.792969 489.578125 C 285.53125 489.578125 293.429688 497.464844 293.429688 507.210938 L 293.429688 801.726562 C 293.4375 824.46875 274.933594 842.953125 252.183594 842.953125 Z M 236.054688 524.824219 L 236.054688 801.726562 C 236.054688 805.011719 238.722656 807.695312 242.027344 807.695312 L 252.183594 807.695312 C 255.480469 807.695312 258.160156 805.011719 258.160156 801.726562 L 258.160156 524.824219 Z M 236.054688 524.824219"/></g><path fill="#404040" d="M 247.105469 524.824219 C 237.367188 524.824219 229.464844 516.9375 229.464844 507.210938 L 229.464844 404.613281 C 229.464844 394.886719 237.359375 387 247.105469 387 C 256.847656 387 264.742188 394.886719 264.742188 404.613281 L 264.742188 507.210938 C 264.742188 516.9375 256.847656 524.824219 247.105469 524.824219 Z M 247.105469 524.824219"/><g clip-path="url(#c)"><path fill="#404040" d="M 467.257812 842.953125 L 457.105469 842.953125 C 434.351562 842.953125 415.863281 824.472656 415.863281 801.726562 L 415.863281 507.210938 C 415.863281 497.464844 423.753906 489.578125 433.480469 489.578125 L 490.855469 489.578125 C 500.605469 489.578125 508.496094 497.464844 508.496094 507.210938 L 508.496094 801.726562 C 508.5 824.46875 490.007812 842.953125 467.257812 842.953125 Z M 451.121094 524.824219 L 451.121094 801.726562 C 451.121094 805.011719 453.804688 807.695312 457.109375 807.695312 L 467.265625 807.695312 C 470.570312 807.695312 473.25 805.011719 473.25 801.726562 L 473.25 524.824219 Z M 451.121094 524.824219"/></g><path fill="#404040" d="M 481.285156 524.824219 C 471.558594 524.824219 463.648438 516.9375 463.648438 507.210938 L 463.648438 404.613281 C 463.648438 394.886719 471.558594 387 481.285156 387 C 491.03125 387 498.917969 394.886719 498.917969 404.613281 L 498.917969 507.210938 C 498.917969 516.9375 491.03125 524.824219 481.285156 524.824219 Z M 481.285156 524.824219"/><g clip-path="url(#d)"><path fill="#404040" d="M 457.675781 458.910156 L 430.84375 458.910156 C 408.109375 458.910156 389.597656 440.425781 389.597656 417.679688 L 389.597656 181.816406 C 389.597656 177.433594 389.597656 164.082031 442.359375 71.65625 C 442.664062 71.121094 443.003906 70.582031 443.382812 70.070312 C 451.214844 59.238281 460.070312 56.949219 466.117188 56.949219 C 489.304688 56.949219 498.917969 87.597656 498.917969 104.003906 L 498.917969 417.675781 C 498.917969 440.421875 480.410156 458.910156 457.675781 458.910156 Z M 463.640625 105.726562 C 445.011719 139.242188 426.425781 175.273438 424.738281 183.453125 L 424.867188 417.679688 C 424.867188 420.964844 427.546875 423.664062 430.839844 423.664062 L 457.671875 423.664062 C 460.964844 423.664062 463.640625 420.964844 463.640625 417.679688 Z M 463.640625 105.726562"/></g></svg>