<svg xmlns="http://www.w3.org/2000/svg" width="600" viewBox="0 0 600 900" height="900" version="1.0"><path fill="#FFF" d="M-60 -90H660V990H-60z"/><path fill="#FFF" d="M-60 -90H660V990H-60z"/><path fill="#FFF" d="M-60 -90H660V990H-60z"/><path fill="#404040" d="M 290.878906 198.726562 C 156.898438 198.726562 48.5 307.246094 48.5 441.226562 C 48.5 575.207031 156.898438 683.726562 290.878906 683.726562 C 424.859375 683.726562 533.5 575.207031 533.5 441.226562 C 533.5 307.246094 424.859375 198.726562 290.878906 198.726562 Z M 291 635.226562 C 183.816406 635.226562 97 548.410156 97 441.226562 C 97 334.039062 183.816406 247.226562 291 247.226562 C 398.183594 247.226562 485 334.039062 485 441.226562 C 485 548.410156 398.183594 635.226562 291 635.226562 Z M 291 635.226562" fill-opacity=".902"/><path fill="#404040" d="M 303.125 319.976562 L 266.75 319.976562 L 266.75 465.476562 L 393.941406 541.863281 L 412.25 512.035156 L 303.125 447.289062 Z M 303.125 319.976562" fill-opacity=".902"/></svg>